<svg width="2000" height="2000" viewBox="0 0 2000 2000" fill="none" xmlns="http://www.w3.org/2000/svg">
<g clip-path="url(#clip0_731_2058)">
<path d="M2000 1000C2000 447.715 1552.28 0 1000 0C447.715 0 0 447.715 0 1000C0 1552.28 447.715 2000 1000 2000C1552.28 2000 2000 1552.28 2000 1000Z" fill="#FCFDFE"/>
<path d="M1438.12 1443.08H1487.92C1496.25 1443.08 1503 1436.33 1503 1428V572.078C1503 563.751 1496.25 557 1487.92 557H1438.12C1429.79 557 1423.04 563.751 1423.04 572.078V1428C1423.04 1436.33 1429.79 1443.08 1438.12 1443.08Z" fill="#474E54"/>
<path d="M1236.59 1443.08H1286.39C1294.72 1443.08 1301.47 1436.33 1301.47 1428V572.078C1301.47 563.751 1294.72 557 1286.39 557H1236.59C1228.26 557 1221.51 563.751 1221.51 572.078V1428C1221.51 1436.33 1228.26 1443.08 1236.59 1443.08Z" fill="#474E54"/>
<path d="M1035.06 1443.08H1084.86C1093.19 1443.08 1099.94 1436.33 1099.94 1428V572.078C1099.94 563.751 1093.19 557 1084.86 557H1035.06C1026.73 557 1019.98 563.751 1019.98 572.078V1428C1019.98 1436.33 1026.73 1443.08 1035.06 1443.08Z" fill="#474E54"/>
<path d="M898.41 622.018V572.078C898.41 563.751 891.659 557 883.332 557H511.078C502.751 557 496 563.751 496 572.078V622.018C496 630.345 502.751 637.096 511.078 637.096H883.332C891.659 637.096 898.41 630.345 898.41 622.018Z" fill="#474E54"/>
<path d="M898.41 823.549V773.609C898.41 765.282 891.659 758.531 883.332 758.531H511.078C502.751 758.531 496 765.282 496 773.609V823.549C496 831.876 502.751 838.627 511.078 838.627H883.332C891.659 838.627 898.41 831.876 898.41 823.549Z" fill="#474E54"/>
<path d="M898.41 1025.08V975.137C898.41 966.81 891.659 960.059 883.332 960.059H511.078C502.751 960.059 496 966.81 496 975.137V1025.08C496 1033.41 502.751 1040.16 511.078 1040.16H883.332C891.659 1040.16 898.41 1033.41 898.41 1025.08Z" fill="#474E54"/>
<path d="M898.41 1226.61V1176.67C898.41 1168.34 891.659 1161.59 883.332 1161.59H511.078C502.751 1161.59 496 1168.34 496 1176.67V1226.61C496 1234.94 502.751 1241.69 511.078 1241.69H883.332C891.659 1241.69 898.41 1234.94 898.41 1226.61Z" fill="#474E54"/>
<path d="M898.41 1428.14V1378.2C898.41 1369.87 891.659 1363.12 883.332 1363.12H511.078C502.751 1363.12 496 1369.87 496 1378.2V1428.14C496 1436.47 502.751 1443.22 511.078 1443.22H883.332C891.659 1443.22 898.41 1436.47 898.41 1428.14Z" fill="#474E54"/>
</g>
<defs>
<clipPath id="clip0_731_2058">
<rect width="2000" height="2000" fill="white"/>
</clipPath>
</defs>
</svg>
