<svg width="1140" height="1004" viewBox="0 0 1140 1004" fill="none" xmlns="http://www.w3.org/2000/svg">
<path d="M1066.5 1003.06H1122.88C1132.3 1003.06 1139.95 995.422 1139.95 985.995V17.069C1139.95 7.64204 1132.3 3.04143e-06 1122.88 2.60575e-06L1066.5 0C1057.07 -4.35668e-07 1049.43 7.64204 1049.43 17.069V985.995C1049.43 995.422 1057.07 1003.06 1066.5 1003.06Z" fill="#474E54"/>
<path d="M838.36 1003.06H894.741C904.168 1003.06 911.81 995.422 911.81 985.995V17.069C911.81 7.64204 904.168 3.04143e-06 894.741 2.60575e-06L838.36 0C828.933 -4.35668e-07 821.291 7.64204 821.291 17.069V985.995C821.291 995.422 828.933 1003.06 838.36 1003.06Z" fill="#474E54"/>
<path d="M610.224 1003.06H666.604C676.031 1003.06 683.673 995.422 683.673 985.995V17.069C683.673 7.64204 676.031 3.04143e-06 666.604 2.60575e-06L610.224 0C600.797 -4.35668e-07 593.155 7.64204 593.155 17.069V985.995C593.155 995.422 600.797 1003.06 610.224 1003.06Z" fill="#474E54"/>
<path d="M455.537 73.6014V17.069C455.537 7.64204 447.895 0 438.468 0H17.069C7.64204 0 0 7.64206 0 17.069V73.6014C0 83.0284 7.64205 90.6704 17.069 90.6704H438.468C447.895 90.6704 455.537 83.0284 455.537 73.6014Z" fill="#474E54"/>
<path d="M455.537 301.738V245.205C455.537 235.778 447.895 228.136 438.468 228.136H17.069C7.64204 228.136 0 235.778 0 245.205V301.738C0 311.165 7.64205 318.807 17.069 318.807H438.468C447.895 318.807 455.537 311.165 455.537 301.738Z" fill="#474E54"/>
<path d="M455.537 529.874V473.342C455.537 463.915 447.895 456.273 438.468 456.273H17.069C7.64204 456.273 0 463.915 0 473.342V529.874C0 539.301 7.64205 546.943 17.069 546.943H438.468C447.895 546.943 455.537 539.301 455.537 529.874Z" fill="#474E54"/>
<path d="M455.537 758.011V701.478C455.537 692.051 447.895 684.409 438.468 684.409H17.069C7.64204 684.409 0 692.051 0 701.478V758.011C0 767.438 7.64205 775.08 17.069 775.08H438.468C447.895 775.08 455.537 767.438 455.537 758.011Z" fill="#474E54"/>
<path d="M455.537 986.147V929.615C455.537 920.188 447.895 912.546 438.468 912.546H17.069C7.64204 912.546 0 920.188 0 929.615V986.147C0 995.574 7.64205 1003.22 17.069 1003.22H438.468C447.895 1003.22 455.537 995.574 455.537 986.147Z" fill="#474E54"/>
</svg>
