<svg width="2500" height="2500" viewBox="0 0 2500 2500" fill="none" xmlns="http://www.w3.org/2000/svg">
<path d="M2070 130H430C264.315 130 130 264.315 130 430V2070C130 2235.69 264.315 2370 430 2370H2070C2235.69 2370 2370 2235.69 2370 2070V430C2370 264.315 2235.69 130 2070 130Z" fill="#FCFDFE"/>
<path d="M1906.77 1913.8H1981.4C1993.88 1913.8 2004 1903.69 2004 1891.21V608.595C2004 596.116 1993.88 586 1981.4 586L1906.77 586C1894.29 586 1884.18 596.116 1884.18 608.595V1891.21C1884.18 1903.69 1894.29 1913.8 1906.77 1913.8Z" fill="#474E54"/>
<path d="M1604.78 1913.8H1679.41C1691.89 1913.8 1702.01 1903.69 1702.01 1891.21V608.595C1702.01 596.116 1691.89 586 1679.41 586L1604.78 586C1592.3 586 1582.18 596.116 1582.18 608.595V1891.21C1582.18 1903.69 1592.3 1913.8 1604.78 1913.8Z" fill="#474E54"/>
<path d="M1302.78 1913.8H1377.42C1389.89 1913.8 1400.01 1903.69 1400.01 1891.21L1400.01 608.595C1400.01 596.116 1389.89 586 1377.42 586L1302.78 586C1290.3 586 1280.19 596.116 1280.19 608.595L1280.19 1891.21C1280.19 1903.69 1290.3 1913.8 1302.78 1913.8Z" fill="#474E54"/>
<path d="M1098.02 683.43V608.595C1098.02 596.116 1087.9 586 1075.42 586H517.595C505.116 586 495 596.116 495 608.595V683.43C495 695.909 505.116 706.025 517.595 706.025H1075.42C1087.9 706.025 1098.02 695.909 1098.02 683.43Z" fill="#474E54"/>
<path d="M1098.02 985.424V910.59C1098.02 898.111 1087.9 887.995 1075.42 887.995H517.595C505.116 887.995 495 898.111 495 910.59V985.424C495 997.903 505.116 1008.02 517.595 1008.02H1075.42C1087.9 1008.02 1098.02 997.903 1098.02 985.424Z" fill="#474E54"/>
<path d="M1098.02 1287.42V1212.58C1098.02 1200.11 1087.9 1189.99 1075.42 1189.99H517.595C505.116 1189.99 495 1200.11 495 1212.58V1287.42C495 1299.9 505.116 1310.01 517.595 1310.01H1075.42C1087.9 1310.01 1098.02 1299.9 1098.02 1287.42Z" fill="#474E54"/>
<path d="M1098.02 1589.41V1514.58C1098.02 1502.1 1087.9 1491.98 1075.42 1491.98H517.595C505.116 1491.98 495 1502.1 495 1514.58V1589.41C495 1601.89 505.116 1612.01 517.595 1612.01H1075.42C1087.9 1612.01 1098.02 1601.89 1098.02 1589.41Z" fill="#474E54"/>
<path d="M1098.02 1891.41V1816.57C1098.02 1804.1 1087.9 1793.98 1075.42 1793.98H517.595C505.116 1793.98 495 1804.1 495 1816.57V1891.41C495 1903.89 505.116 1914 517.595 1914H1075.42C1087.9 1914 1098.02 1903.89 1098.02 1891.41Z" fill="#474E54"/>
</svg>
