<svg width="25" height="22" viewBox="0 0 25 22" fill="none" xmlns="http://www.w3.org/2000/svg">
<path d="M23.3892 21.9981H24.6257C24.8324 21.9981 25 21.8305 25 21.6237V0.374337C25 0.167597 24.8324 6.6701e-08 24.6257 5.71461e-08L23.3892 0C23.1824 -9.55491e-09 23.0148 0.167596 23.0148 0.374337V21.6237C23.0148 21.8305 23.1824 21.9981 23.3892 21.9981Z" fill="#0F1113"/>
<path d="M18.386 21.9981H19.6224C19.8292 21.9981 19.9968 21.8305 19.9968 21.6237V0.374337C19.9968 0.167597 19.8292 6.6701e-08 19.6224 5.71461e-08L18.386 0C18.1792 -9.55491e-09 18.0116 0.167596 18.0116 0.374337V21.6237C18.0116 21.8305 18.1792 21.9981 18.386 21.9981Z" fill="#0F1113"/>
<path d="M13.3827 21.9981H14.6192C14.8259 21.9981 14.9935 21.8305 14.9935 21.6237L14.9935 0.374337C14.9935 0.167597 14.8259 6.6701e-08 14.6192 5.71461e-08L13.3827 0C13.176 -9.55491e-09 13.0084 0.167596 13.0084 0.374337L13.0084 21.6237C13.0084 21.8305 13.176 21.9981 13.3827 21.9981Z" fill="#0F1113"/>
<path d="M9.99031 1.61414V0.374338C9.99031 0.167597 9.82272 9.05603e-07 9.61598 9.05603e-07H0.374337C0.167597 9.05603e-07 0 0.167598 0 0.374339V1.61414C0 1.82088 0.167597 1.98848 0.374338 1.98848H9.61598C9.82272 1.98848 9.99031 1.82088 9.99031 1.61414Z" fill="#0F1113"/>
<path d="M9.99031 6.61737V5.37756C9.99031 5.17082 9.82272 5.00323 9.61598 5.00323H0.374337C0.167597 5.00323 0 5.17082 0 5.37757V6.61737C0 6.82411 0.167597 6.99171 0.374338 6.99171H9.61598C9.82272 6.99171 9.99031 6.82411 9.99031 6.61737Z" fill="#0F1113"/>
<path d="M9.99031 11.6206V10.3808C9.99031 10.1741 9.82272 10.0065 9.61598 10.0065H0.374337C0.167597 10.0065 0 10.1741 0 10.3808V11.6206C0 11.8273 0.167597 11.9949 0.374338 11.9949H9.61598C9.82272 11.9949 9.99031 11.8273 9.99031 11.6206Z" fill="#0F1113"/>
<path d="M9.99031 16.6238V15.384C9.99031 15.1773 9.82272 15.0097 9.61598 15.0097H0.374337C0.167597 15.0097 0 15.1773 0 15.384V16.6238C0 16.8306 0.167597 16.9982 0.374338 16.9982H9.61598C9.82272 16.9982 9.99031 16.8306 9.99031 16.6238Z" fill="#0F1113"/>
<path d="M9.99031 21.6271V20.3872C9.99031 20.1805 9.82272 20.0129 9.61598 20.0129H0.374337C0.167597 20.0129 0 20.1805 0 20.3872V21.6271C0 21.8338 0.167597 22.0014 0.374338 22.0014H9.61598C9.82272 22.0014 9.99031 21.8338 9.99031 21.6271Z" fill="#0F1113"/>
</svg>
