<svg width="24" height="17" viewBox="0 0 24 17" fill="none" xmlns="http://www.w3.org/2000/svg">
<path d="M11.1663 15.9692H12.0639C12.214 15.9692 12.3357 15.8476 12.3357 15.6975V0.271746C12.3357 0.121664 12.214 4.84207e-08 12.0639 4.14843e-08L11.1663 0C11.0162 -6.93627e-09 10.8945 0.121664 10.8945 0.271746V15.6975C10.8945 15.8476 11.0162 15.9692 11.1663 15.9692Z" fill="#0F1113"/>
<path d="M22.7679 15.9692H23.6655C23.8156 15.9692 23.9372 15.8476 23.9372 15.6975V0.271746C23.9372 0.121664 23.8156 4.84207e-08 23.6655 4.14843e-08L22.7679 0C22.6178 -6.93627e-09 22.4961 0.121664 22.4961 0.271746V15.6975C22.4961 15.8476 22.6178 15.9692 22.7679 15.9692Z" fill="#0F1113"/>
<path d="M0.271746 15.9692H1.16935C1.31943 15.9692 1.4411 15.8476 1.4411 15.6975V1.71521C1.4411 1.56516 1.56274 1.44351 1.7128 1.44351H3.36033C3.51039 1.44351 3.63203 1.56516 3.63203 1.71521V15.6975C3.63203 15.8476 3.75369 15.9692 3.90378 15.9692H4.80138C4.95146 15.9692 5.07313 15.8476 5.07313 15.6975V1.71521C5.07313 1.56516 5.19477 1.44351 5.34483 1.44351H6.99238C7.1424 1.44351 7.26409 1.56516 7.26409 1.71521V15.6975C7.26409 15.8476 7.38571 15.9692 7.5358 15.9692H8.4334C8.58348 15.9692 8.70517 15.8476 8.70517 15.6975V0.271746C8.70517 0.121664 8.58348 5.40435e-08 8.4334 5.40435e-08L7.5358 0L7.53566 5.40435e-08L3.90378 0L3.9036 5.40435e-08L0.271746 0C0.121665 -6.93627e-09 6.43932e-07 0.121664 6.37727e-07 0.271746L0 15.6975C-6.20462e-09 15.8476 0.121664 15.9692 0.271746 15.9692Z" fill="#0F1113"/>
<path d="M14.7617 15.6975C14.7617 15.8476 14.8834 15.9692 15.0335 15.9692H15.9311C16.0812 15.9692 16.2028 15.8476 16.2028 15.6975V1.7128C16.2028 1.56274 16.3245 1.4411 16.4745 1.4411H18.3564C18.5065 1.4411 18.6281 1.56274 18.6281 1.7128V15.6975C18.6281 15.8476 18.7498 15.9692 18.8999 15.9692H19.7975C19.9475 15.9692 20.0692 15.8476 20.0692 15.6975V1.1695V1.16935V0.271746C20.0692 0.252986 20.0673 0.234669 20.0637 0.21698C20.0383 0.0931498 19.9287 4.75537e-08 19.7975 4.14845e-08L18.8999 0L18.8997 5.40437e-08H15.9312L15.0335 0C15.0265 0 15.0195 0.00026733 15.0126 0.000792385C15.001 0.00166747 14.9898 0.00325847 14.9787 0.0055209C14.8549 0.0308601 14.7617 0.140425 14.7617 0.271746V1.16935C14.7617 1.16954 14.7617 1.16973 14.7617 1.16992V15.6975Z" fill="#0F1113"/>
</svg>
