<svg width="26" height="26" viewBox="0 0 26 26" fill="none" xmlns="http://www.w3.org/2000/svg">
<path d="M21.317 5.14141C19.7873 4.43953 18.147 3.92241 16.4319 3.62624C16.4007 3.62052 16.3695 3.63481 16.3533 3.66338C16.1424 4.03859 15.9087 4.52809 15.745 4.91284C13.9004 4.63667 12.0652 4.63667 10.2583 4.91284C10.0946 4.51954 9.85247 4.03859 9.64056 3.66338C9.62447 3.63576 9.59327 3.62148 9.56203 3.62624C7.8479 3.92147 6.20755 4.43858 4.67693 5.14141C4.66368 5.14712 4.65232 5.15666 4.64478 5.16903C1.53339 9.81738 0.681051 14.3515 1.09918 18.8294C1.10107 18.8513 1.11337 18.8722 1.1304 18.8855C3.1832 20.3931 5.1717 21.3083 7.12327 21.9149C7.15451 21.9245 7.1876 21.913 7.20747 21.8873C7.66912 21.2569 8.08064 20.5921 8.43346 19.8931C8.45429 19.8522 8.43441 19.8036 8.39185 19.7874C7.73913 19.5398 7.11759 19.2379 6.51972 18.895C6.47244 18.8674 6.46864 18.7998 6.51215 18.7675C6.63796 18.6731 6.76381 18.5751 6.88394 18.4761C6.90568 18.458 6.93597 18.4541 6.96153 18.4655C10.8893 20.2588 15.1415 20.2588 19.023 18.4655C19.0484 18.4532 19.0788 18.457 19.1014 18.475C19.2216 18.5741 19.3474 18.6731 19.4742 18.7675C19.5177 18.7998 19.5149 18.8674 19.4676 18.895C18.8697 19.2446 18.2481 19.5398 17.5945 19.7865C17.5519 19.8026 17.533 19.8522 17.5538 19.8931C17.9143 20.5912 18.3258 21.2559 18.7789 21.8864C18.7978 21.913 18.8319 21.9245 18.8631 21.9149C20.8241 21.3083 22.8126 20.3931 24.8654 18.8855C24.8834 18.8722 24.8947 18.8522 24.8967 18.8303C25.3971 13.6534 24.0584 9.15646 21.3482 5.16998C21.3415 5.15666 21.3303 5.14712 21.317 5.14141ZM9.02001 16.1028C7.83749 16.1028 6.86313 15.0172 6.86313 13.6839C6.86313 12.3506 7.81859 11.265 9.02001 11.265C10.2308 11.265 11.1958 12.3601 11.1769 13.6839C11.1769 15.0172 10.2214 16.1028 9.02001 16.1028ZM16.9947 16.1028C15.8122 16.1028 14.8378 15.0172 14.8378 13.6839C14.8378 12.3506 15.7933 11.265 16.9947 11.265C18.2056 11.265 19.1705 12.3601 19.1516 13.6839C19.1516 15.0172 18.2056 16.1028 16.9947 16.1028Z" fill="#9EA6AC"/>
</svg>
