<svg width="26" height="26" viewBox="0 0 26 26" fill="none" xmlns="http://www.w3.org/2000/svg">
<path fill-rule="evenodd" clip-rule="evenodd" d="M8.28244 9.66418C7.40595 11.1827 5.21419 11.1827 4.3377 9.66418L1.30837 4.41578C0.43206 2.89755 1.52776 1 3.28074 1L9.3394 1C11.0924 1 12.1881 2.89755 11.3118 4.41578L8.28244 9.66418ZM24.9604 5.9017C24.9604 8.60884 22.7658 10.8034 20.0587 10.8034C17.3515 10.8034 15.157 8.60884 15.157 5.9017C15.157 3.19457 17.3515 1 20.0587 1C22.7658 1 24.9604 3.19457 24.9604 5.9017ZM15.157 16.7295C15.157 15.607 16.0669 14.6971 17.1893 14.6971H22.928C24.0505 14.6971 24.9604 15.607 24.9604 16.7295C24.9604 17.8519 24.0505 18.7618 22.928 18.7618H17.1893C16.0669 18.7618 15.157 17.8519 15.157 16.7295ZM17.1898 20.4339C16.0673 20.4339 15.1574 21.3438 15.1574 22.4662C15.1574 23.5887 16.0673 24.4986 17.1898 24.4986H22.9285C24.0509 24.4986 24.9608 23.5887 24.9608 22.4662C24.9608 21.3438 24.0509 20.4339 22.9285 20.4339H17.1898ZM5.21961 15.6183L4.89304 15.2918C4.10013 14.4989 2.81459 14.4989 2.02168 15.2918C1.22878 16.0847 1.22878 17.3702 2.02168 18.1631L2.34824 18.4897C2.96075 19.1023 2.96075 20.0953 2.34826 20.7079L2.02168 21.0345C1.22878 21.8274 1.22878 23.1129 2.02168 23.9058C2.81459 24.6987 4.10013 24.6987 4.89304 23.9058L5.21954 23.5793C5.8321 22.9667 6.82528 22.9667 7.43784 23.5793L7.76439 23.9058C8.55729 24.6987 9.84284 24.6987 10.6357 23.9058C11.4286 23.1129 11.4286 21.8274 10.6357 21.0345L10.3092 20.708C9.69661 20.0954 9.69662 19.1022 10.3092 18.4897L10.6357 18.1631C11.4286 17.3702 11.4286 16.0847 10.6357 15.2918C9.84284 14.4989 8.55729 14.4989 7.76439 15.2918L7.43778 15.6184C6.82523 16.2309 5.83215 16.2309 5.21961 15.6183Z" fill="#9EA6AC"/>
</svg>
